<svg width="19" height="25" viewBox="0 0 19 25" fill="none" xmlns="http://www.w3.org/2000/svg">
<path d="M0.445312 3.51562L0.503906 2.01562C0.503906 1.15625 0.335938 0.5625 0 0.234375L0.234375 0C0.546875 0.304688 0.933594 0.457031 1.39453 0.457031H16.7812C17.2578 0.457031 17.6484 0.304688 17.9531 0L18.1875 0.234375C17.8906 0.53125 17.7422 0.921875 17.7422 1.40625L17.6836 2.90625C17.6836 3.75 17.8516 4.33984 18.1875 4.67578L17.9531 4.92188C17.6016 4.5625 17.0312 4.38281 16.2422 4.38281L13.6523 4.54688C12.832 4.54688 12.2422 4.36719 11.8828 4.00781L11.6367 4.24219C11.9414 4.53906 12.0938 4.92969 12.0938 5.41406V15.1406C12.0938 15.9531 12.1641 17.1641 12.3047 18.7734C12.4531 20.3828 12.5273 21.4414 12.5273 21.9492C12.5273 22.8398 12.3672 23.2852 12.0469 23.2852C11.7266 23.2852 11.5664 22.9688 11.5664 22.3359C11.5664 21.7031 11.6172 20.8438 11.7188 19.7578C11.8281 18.6797 11.8828 17.8672 11.8828 17.3203C11.8828 16.4688 11.7148 16.043 11.3789 16.043C11.2148 16.043 11.0859 16.1406 10.9922 16.3359C10.8984 16.5312 10.8516 16.7227 10.8516 16.9102L11.1211 19.3594C11.1211 19.9219 10.9609 20.2031 10.6406 20.2031C10.4766 20.2031 10.3555 20.1211 10.2773 19.957C10.1992 19.793 10.1602 19.6016 10.1602 19.3828C10.1602 19.1641 10.2305 18.8047 10.3711 18.3047C10.5117 17.8125 10.582 17.4102 10.582 17.0977C10.582 16.7852 10.4453 16.5469 10.1719 16.3828C9.90625 16.2188 9.56641 16.1367 9.15234 16.1367C8.74609 16.1367 8.32031 16.2188 7.875 16.3828C7.4375 16.5469 7.05078 16.8008 6.71484 17.1445C6.37891 17.4961 6.21094 17.8398 6.21094 18.1758C6.21094 18.5195 6.26172 18.9336 6.36328 19.418C6.47266 19.9023 6.52734 20.3047 6.52734 20.625C6.52734 20.9531 6.38281 21.1172 6.09375 21.1172C5.76562 21.1172 5.60156 20.9414 5.60156 20.5898C5.60156 20.2461 5.66406 19.8086 5.78906 19.2773C5.91406 18.7461 5.97656 18.3477 5.97656 18.082V15.0352C5.99219 10.7539 6 7.54688 6 5.41406C6 4.92188 6.14844 4.53125 6.44531 4.24219L6.21094 4.00781C5.86719 4.35938 5.29688 4.53516 4.5 4.53516L1.98047 4.38281C1.17578 4.38281 0.59375 4.5625 0.234375 4.92188L0 4.67578C0.296875 4.37891 0.445312 3.99219 0.445312 3.51562ZM10.5469 21.9727C10.7344 22.832 10.8281 23.5781 10.8281 24.2109C10.8281 24.4844 10.7305 24.6211 10.5352 24.6211C10.3398 24.6211 10.2422 24.4961 10.2422 24.2461C10.2422 23.543 10.3438 22.7852 10.5469 21.9727Z" fill="#0710FF"/>
</svg>
